<?xml version="1.0" standalone="no"?>
<!DOCTYPE svg PUBLIC "-//W3C//DTD SVG 20010904//EN"
 "http://www.w3.org/TR/2001/REC-SVG-20010904/DTD/svg10.dtd">
<svg version="1.0" xmlns="http://www.w3.org/2000/svg"
 width="700.000000pt" height="700.000000pt" viewBox="0 0 700.000000 700.000000"
 preserveAspectRatio="xMidYMid meet">
<metadata>
Created by potrace 1.11, written by Peter Selinger 2001-2013
</metadata>
<g transform="translate(0.000000,700.000000) scale(0.100000,-0.100000)"
fill="#000000" stroke="none">
<path d="M3365 6913 c-24 -5 -208 -59 -385 -113 -113 -35 -228 -69 -350 -105
-25 -7 -164 -49 -310 -93 -253 -76 -286 -86 -390 -117 -25 -7 -144 -43 -265
-79 -121 -37 -281 -85 -355 -107 -74 -22 -184 -56 -245 -74 -60 -19 -171 -52
-245 -74 -74 -22 -152 -45 -172 -53 -54 -19 -106 -72 -121 -123 -10 -35 -12
-361 -11 -1582 1 -846 4 -1563 8 -1593 26 -225 134 -527 259 -725 143 -227
277 -395 467 -586 284 -286 558 -505 965 -774 323 -214 618 -383 955 -548 236
-116 219 -116 485 17 433 217 768 415 1135 673 67 47 253 185 260 192 3 3 52
44 110 91 110 89 147 121 268 235 314 297 524 567 672 867 46 92 121 294 134
358 3 14 8 36 11 50 32 137 34 229 34 1766 l0 1530 -23 51 c-26 55 -57 81
-126 106 -39 14 -471 145 -740 224 -79 23 -285 85 -510 153 -251 76 -1218 366
-1320 395 -131 38 -167 45 -195 38z m620 -583 c297 -89 590 -176 650 -195 134
-41 304 -92 365 -110 60 -16 496 -147 635 -190 61 -19 137 -41 170 -51 33 -9
63 -21 66 -26 4 -6 6 -656 6 -1445 0 -1316 -1 -1444 -17 -1532 -87 -483 -483
-990 -1175 -1503 -66 -49 -127 -95 -135 -101 -8 -7 -49 -34 -90 -61 -368 -242
-610 -385 -934 -550 l-129 -65 -131 66 c-402 204 -822 461 -1146 701 -622 462
-1018 930 -1152 1361 -52 167 -51 141 -52 1684 l-1 1447 35 12 c19 7 40 13 45
14 6 1 138 41 295 89 157 47 292 88 300 90 22 5 378 112 490 147 52 16 102 31
110 33 8 2 271 81 584 174 678 204 626 190 651 180 11 -5 263 -81 560 -169z"/>
<path d="M3398 6295 c-2 -1 -43 -5 -93 -9 -155 -11 -230 -21 -386 -52 -353
-68 -725 -208 -1020 -382 -96 -57 -106 -67 -115 -109 -5 -24 0 -37 23 -63 43
-48 79 -44 197 24 304 176 630 296 976 361 14 3 36 7 50 9 32 7 80 13 155 22
33 3 69 8 80 11 34 7 445 11 522 4 39 -3 86 -3 103 0 53 11 81 67 60 118 -13
32 -38 48 -90 57 -33 6 -456 14 -462 9z"/>
<path d="M4265 6212 c-28 -6 -62 -39 -70 -69 -9 -36 12 -79 43 -92 61 -25 310
-94 352 -98 50 -5 82 14 99 58 11 31 -8 83 -37 98 -21 11 -105 41 -131 46 -9
2 -36 10 -61 18 -43 14 -113 32 -155 39 -11 2 -29 2 -40 0z"/>
<path d="M3418 5915 c-2 -1 -46 -5 -98 -9 -113 -8 -176 -16 -245 -30 -11 -2
-40 -7 -65 -11 -72 -11 -236 -54 -352 -91 -116 -38 -148 -62 -148 -115 0 -36
37 -77 74 -83 17 -3 58 5 100 20 59 21 154 47 251 71 67 16 182 37 265 48 193
27 532 27 725 -1 34 -4 151 -26 222 -40 70 -14 277 -79 379 -119 183 -73 340
-157 508 -273 121 -83 155 -92 204 -55 28 21 38 57 28 99 -10 40 -243 193
-450 296 -279 140 -608 239 -906 273 -30 3 -68 9 -85 11 -31 6 -402 14 -407 9z"/>
<path d="M2090 5519 c-342 -202 -646 -486 -870 -812 -43 -61 -54 -85 -53 -114
3 -90 128 -114 176 -34 85 145 358 452 502 566 28 22 52 43 55 46 16 18 209
149 296 201 108 64 131 91 119 141 -9 36 -37 58 -82 63 -33 4 -52 -3 -143 -57z"/>
<path d="M3350 5529 c-41 -4 -92 -9 -113 -13 -21 -3 -59 -8 -85 -11 -26 -3
-55 -8 -64 -11 -9 -3 -27 -7 -40 -9 -193 -36 -463 -132 -638 -227 -126 -69
-142 -79 -220 -131 -505 -337 -850 -845 -964 -1422 -26 -129 -27 -140 -32
-350 -4 -187 -3 -202 15 -232 34 -54 113 -61 156 -13 15 16 17 43 17 192 0
173 13 306 43 435 9 37 18 75 20 84 6 28 67 203 87 249 49 112 106 214 183
330 101 150 137 193 275 330 205 203 443 357 722 468 108 43 314 106 383 116
22 3 51 8 65 10 93 17 192 27 305 31 106 4 134 8 155 23 50 38 52 107 3 139
-29 19 -133 23 -273 12z"/>
<path d="M3935 5488 c-59 -31 -71 -93 -27 -137 20 -20 48 -31 112 -45 163 -33
361 -102 527 -183 67 -33 101 -32 136 3 59 58 34 114 -74 167 -159 77 -284
123 -461 168 -138 35 -186 41 -213 27z"/>
<path d="M3448 5155 c-2 -1 -41 -6 -88 -9 -71 -6 -132 -14 -172 -24 -5 -1 -14
-2 -22 -2 -7 0 -25 -12 -40 -26 -56 -56 -14 -151 64 -146 9 1 115 13 177 21
73 9 304 7 383 -3 585 -75 1082 -413 1324 -901 76 -153 132 -327 150 -470 3
-22 10 -78 16 -125 6 -47 13 -96 15 -110 2 -14 7 -52 11 -85 12 -116 18 -132
54 -150 37 -19 63 -19 99 0 48 24 51 51 26 250 -31 244 -33 258 -51 350 -26
130 -80 281 -149 420 -280 558 -847 934 -1510 1001 -53 6 -283 12 -287 9z"/>
<path d="M4937 5049 c-39 -11 -56 -26 -66 -63 -11 -43 6 -73 76 -131 165 -136
344 -351 449 -536 37 -65 66 -105 84 -114 60 -31 140 16 140 82 0 13 -30 73
-84 168 -100 175 -299 405 -476 547 -62 50 -83 58 -123 47z"/>
<path d="M2790 5009 c-98 -22 -431 -218 -537 -317 -35 -32 -43 -47 -43 -74 0
-40 14 -62 53 -82 40 -20 75 -8 150 52 100 80 214 150 342 212 67 32 127 66
135 75 17 21 17 79 0 100 -24 29 -63 42 -100 34z"/>
<path d="M3523 4771 c-55 -14 -84 -69 -64 -119 17 -41 44 -53 133 -57 100 -5
202 -20 297 -45 63 -16 79 -17 105 -6 42 18 59 41 59 81 0 53 -34 81 -119 100
-120 26 -171 35 -239 40 -136 11 -149 12 -172 6z"/>
<path d="M3125 4722 c-63 -12 -250 -85 -334 -130 -412 -220 -690 -590 -771
-1027 -22 -119 -23 -394 -1 -433 18 -34 70 -53 112 -42 58 16 66 43 63 215 -3
163 9 249 53 389 121 383 446 701 848 831 110 36 148 68 140 117 -10 54 -60
90 -110 80z"/>
<path d="M4310 4542 c-32 -5 -67 -37 -75 -69 -10 -42 12 -75 81 -122 79 -53
226 -195 281 -271 93 -129 162 -272 198 -411 18 -69 20 -79 30 -154 11 -84 14
-109 19 -140 4 -27 9 -70 21 -165 2 -19 7 -60 10 -90 4 -30 8 -66 11 -80 2
-14 7 -104 10 -200 7 -189 13 -212 62 -231 42 -16 98 5 118 43 14 27 16 56 11
197 -4 92 -8 177 -11 191 -2 14 -7 54 -10 90 -3 36 -8 74 -10 85 -2 11 -7 47
-11 80 -6 57 -10 90 -20 160 -2 17 -6 53 -10 80 -9 68 -13 92 -19 113 -3 9 -7
28 -10 42 -9 55 -68 215 -103 283 -95 184 -265 385 -428 505 -76 56 -107 70
-145 64z"/>
<path d="M2003 4426 c-46 -24 -171 -216 -248 -378 -149 -318 -190 -630 -135
-1038 5 -36 12 -89 15 -119 4 -30 9 -63 11 -75 10 -54 5 -124 -11 -157 -10
-18 -44 -69 -77 -113 -68 -92 -75 -131 -32 -171 28 -26 80 -33 113 -15 25 13
144 175 170 230 23 49 38 121 35 160 -3 27 -33 269 -39 310 -63 421 23 800
261 1156 44 67 74 121 74 137 0 60 -81 103 -137 73z"/>
<path d="M3420 4388 c-47 -4 -96 -10 -110 -14 -14 -3 -38 -8 -54 -11 -16 -3
-68 -18 -115 -35 -307 -107 -558 -345 -668 -633 -75 -194 -83 -322 -41 -640
35 -271 37 -327 21 -435 -32 -205 -76 -293 -296 -588 -55 -74 -107 -148 -114
-164 -36 -72 41 -145 120 -113 25 10 243 293 324 420 63 98 125 257 148 373
20 104 23 282 6 378 -5 32 -12 84 -16 114 -3 30 -7 66 -9 80 -41 249 -20 411
75 604 108 218 367 415 612 466 96 20 111 21 202 24 382 10 730 -211 866 -549
28 -70 48 -163 64 -290 3 -27 8 -61 10 -75 3 -24 6 -47 21 -165 3 -27 7 -61 9
-75 7 -47 18 -245 18 -320 0 -78 -11 -282 -17 -316 -2 -10 -7 -41 -10 -69 -8
-54 -13 -86 -21 -125 -2 -14 -7 -38 -11 -55 -17 -87 -83 -306 -127 -420 -89
-231 -208 -447 -367 -663 -122 -166 -128 -185 -81 -233 34 -34 98 -40 126 -13
23 24 145 188 191 259 21 33 41 62 44 65 15 13 122 207 170 305 107 222 202
503 235 694 3 19 7 37 9 40 2 3 7 29 10 56 4 28 11 78 17 113 12 78 22 236 22
357 1 88 -11 308 -18 344 -2 10 -6 42 -10 72 -56 460 -77 548 -159 693 -117
203 -271 344 -492 447 -115 54 -225 84 -343 94 -117 10 -155 11 -241 3z"/>
<path d="M3497 4014 c-1 -1 -29 -4 -62 -8 -297 -30 -548 -248 -610 -530 -17
-74 -17 -197 -1 -296 2 -14 7 -52 11 -85 4 -33 9 -67 10 -75 23 -124 26 -365
6 -480 -17 -96 -70 -259 -111 -341 -34 -67 -96 -173 -117 -199 -6 -8 -73 -97
-147 -198 -150 -203 -161 -228 -111 -277 26 -27 80 -34 114 -15 18 9 126 151
291 380 202 282 294 577 284 910 -2 74 -6 146 -8 160 -19 116 -38 281 -41 360
-3 75 0 108 17 160 50 160 183 287 353 336 69 19 194 22 270 4 118 -27 244
-116 308 -217 33 -52 63 -142 71 -208 3 -27 15 -120 25 -205 11 -85 24 -184
28 -220 10 -80 10 -406 0 -478 -25 -179 -45 -281 -79 -401 -40 -139 -87 -260
-153 -395 -95 -194 -150 -278 -383 -591 -142 -189 -172 -236 -172 -263 0 -37
36 -78 73 -84 55 -9 76 11 242 232 202 269 256 347 333 480 155 270 265 584
311 885 6 39 13 86 16 105 12 70 12 446 0 550 -13 112 -23 189 -30 230 -4 24
-8 58 -20 168 -19 162 -77 285 -190 398 -64 64 -98 90 -172 126 -95 48 -196
75 -296 81 -32 2 -59 2 -60 1z"/>
<path d="M3470 3629 c-143 -21 -255 -145 -253 -279 1 -30 13 -147 28 -260 26
-200 33 -367 21 -495 -6 -57 -9 -79 -21 -135 -3 -14 -7 -34 -9 -45 -27 -143
-114 -361 -203 -509 -20 -34 -131 -189 -246 -345 -115 -156 -213 -296 -217
-310 -19 -66 57 -127 126 -101 14 6 93 103 201 247 237 318 312 431 377 565
49 100 118 281 130 341 3 12 8 33 11 47 31 134 48 277 49 410 0 60 -12 232
-18 265 -2 12 -7 48 -11 80 -4 33 -9 71 -11 85 -10 64 -17 138 -16 169 3 90
131 127 189 55 12 -15 21 -30 21 -33 -2 -7 12 -126 18 -156 2 -11 6 -42 9 -70
6 -61 13 -113 19 -143 18 -85 24 -355 12 -467 -30 -271 -102 -510 -221 -741
-68 -131 -138 -236 -338 -501 -217 -289 -219 -292 -211 -331 13 -63 85 -91
142 -56 15 9 77 83 137 165 291 395 334 454 335 461 0 4 13 27 29 50 126 186
250 516 295 783 25 145 36 438 22 545 -2 19 -8 64 -11 100 -4 36 -8 72 -10 81
-2 8 -11 78 -20 155 -21 173 -35 220 -86 277 -65 74 -168 111 -269 96z"/>
<path d="M2085 2885 c-14 -13 -25 -30 -26 -37 0 -7 -2 -53 -3 -103 -5 -164
-34 -232 -183 -435 -141 -194 -142 -194 -147 -224 -10 -57 74 -109 133 -82 31
14 259 318 305 406 58 112 75 180 82 317 4 98 -3 130 -36 163 -29 29 -94 27
-125 -5z"/>
<path d="M4940 2379 c-48 -10 -66 -38 -80 -121 -7 -40 -14 -82 -17 -93 -2 -11
-6 -33 -9 -50 -3 -16 -16 -71 -29 -122 -28 -105 -22 -144 26 -168 68 -36 119
-5 148 88 16 53 39 158 67 307 13 68 8 109 -15 134 -28 30 -46 34 -91 25z"/>
</g>
</svg>
