<?xml version="1.0" encoding="UTF-8" standalone="no"?>
<!DOCTYPE svg PUBLIC "-//W3C//DTD SVG 1.1//EN" "http://www.w3.org/Graphics/SVG/1.1/DTD/svg11.dtd">
<svg width="100%" height="100%" viewBox="0 0 600 600" version="1.1" xmlns="http://www.w3.org/2000/svg" xmlns:xlink="http://www.w3.org/1999/xlink" xml:space="preserve" xmlns:serif="http://www.serif.com/" style="fill-rule:evenodd;clip-rule:evenodd;stroke-linejoin:round;stroke-miterlimit:2;">
    <g transform="matrix(1.88933,-0.242337,0.227231,1.77156,294.1,297.001)">
        <g transform="matrix(1,0,0,1,-144,-144)">
            <g id="SvgjsG1008" transform="matrix(0.9167,0,0,0.9167,11.9952,11.9952)">
                <g>
                    <path d="M161.402,174.395L161.402,153.952C161.402,145.892 154.844,139.335 146.784,139.335C138.724,139.335 132.166,145.892 132.166,153.952L132.166,172.409C132.166,194.651 123.972,216.006 109.093,232.538L88.578,255.333C86.854,257.248 87.01,260.198 88.925,261.922C90.839,263.646 93.789,263.49 95.513,261.575L116.029,238.78C132.452,220.531 141.497,196.96 141.497,172.409L141.497,153.952C141.497,151.037 143.869,148.665 146.784,148.665C149.7,148.665 152.071,151.037 152.071,153.952L152.071,174.395C152.071,201.766 141.932,227.993 123.52,248.247L103.522,270.244C101.789,272.15 101.93,275.102 103.836,276.835C104.73,277.648 105.853,278.048 106.972,278.048C108.241,278.048 109.505,277.533 110.426,276.52L130.423,254.523C150.4,232.548 161.402,204.092 161.402,174.395Z" style="fill:rgb(53,115,76);fill-rule:nonzero;"/>
                    <path d="M181.307,153.952C181.307,134.916 165.82,119.43 146.784,119.43C127.748,119.43 112.262,134.916 112.262,153.952L112.262,172.409C112.262,189.726 105.882,206.351 94.298,219.222L79.713,235.428C77.99,237.343 78.145,240.293 80.06,242.017C81.975,243.741 84.925,243.584 86.649,241.67L101.234,225.464C114.362,210.877 121.593,192.035 121.593,172.409L121.593,153.952C121.593,140.061 132.894,128.76 146.785,128.76C160.676,128.76 171.977,140.061 171.977,153.952L171.977,174.395C171.977,206.727 159.999,237.711 138.249,261.636L121.376,280.197C119.643,282.103 119.783,285.054 121.69,286.787C122.583,287.6 123.706,288 124.826,288C126.095,288 127.359,287.486 128.279,286.473L145.153,267.912C168.467,242.266 181.307,209.054 181.307,174.395L181.307,153.952Z" style="fill:rgb(53,115,76);fill-rule:nonzero;"/>
                    <path d="M201.212,153.952C201.212,123.941 176.796,99.525 146.784,99.525C116.772,99.525 92.357,123.941 92.357,153.952L92.357,172.409C92.357,184.8 87.791,196.697 79.502,205.906L66.37,220.498C64.646,222.413 64.802,225.363 66.717,227.087C68.632,228.811 71.582,228.654 73.306,226.74L86.438,212.148C96.272,201.222 101.687,187.109 101.687,172.409L101.687,153.952C101.687,129.086 121.917,108.855 146.784,108.855C171.651,108.855 191.881,129.086 191.881,153.952L191.881,174.395C191.881,211.691 178.065,247.429 152.977,275.025L148.307,280.162C146.574,282.068 146.715,285.019 148.621,286.752C149.515,287.565 150.638,287.965 151.757,287.965C153.026,287.965 154.29,287.451 155.211,286.438L159.88,281.301C186.533,251.983 201.211,214.017 201.211,174.395L201.211,153.952L201.212,153.952Z" style="fill:rgb(53,115,76);fill-rule:nonzero;"/>
                    <path d="M72.452,153.952C72.452,156.53 74.54,158.618 77.117,158.618C79.693,158.618 81.782,156.53 81.782,153.952C81.782,138.243 87.485,123.068 97.842,111.222C108.103,99.486 122.185,91.812 137.494,89.612C140.045,89.246 141.815,86.881 141.448,84.331C141.082,81.781 138.715,80.013 136.167,80.377C118.651,82.894 102.545,91.667 90.818,105.081C78.974,118.627 72.452,135.984 72.452,153.952ZM81.782,172.409C81.782,169.832 79.693,167.744 77.117,167.744C74.54,167.744 72.452,169.832 72.452,172.409C72.452,179.875 69.702,187.041 64.708,192.59L53.027,205.57C51.303,207.484 51.459,210.434 53.374,212.158C54.266,212.961 55.381,213.356 56.493,213.356C57.77,213.356 59.042,212.834 59.962,211.811L71.644,198.832C78.181,191.567 81.782,182.184 81.782,172.409ZM211.96,214.055C209.466,213.406 206.918,214.895 206.265,217.387C204.543,223.968 202.401,230.509 199.896,236.831C198.946,239.226 200.119,241.937 202.514,242.886C203.079,243.109 203.66,243.215 204.232,243.215C206.089,243.215 207.845,242.099 208.57,240.267C211.213,233.596 213.475,226.693 215.292,219.749C215.944,217.257 214.452,214.707 211.96,214.055ZM196.432,98.674C194.515,96.95 191.565,97.108 189.843,99.024C188.121,100.94 188.277,103.89 190.193,105.612C203.916,117.948 211.786,135.567 211.786,153.952L211.786,174.395C211.786,182.153 211.251,189.972 210.195,197.633C209.844,200.186 211.628,202.54 214.18,202.891C214.396,202.921 214.61,202.935 214.822,202.935C217.117,202.935 219.116,201.242 219.438,198.906C220.551,190.824 221.116,182.577 221.116,174.394L221.116,153.952C221.117,132.925 212.119,112.777 196.432,98.674ZM174.622,95.218C175.269,95.526 175.952,95.672 176.624,95.672C178.368,95.672 180.04,94.69 180.84,93.011C181.948,90.685 180.959,87.901 178.633,86.794C171.912,83.593 164.768,81.434 157.4,80.376C154.846,80.012 152.485,81.781 152.119,84.331C151.752,86.88 153.523,89.245 156.073,89.612C162.51,90.537 168.75,92.422 174.622,95.218Z" style="fill:rgb(53,115,76);fill-rule:nonzero;"/>
                    <path d="M146.784,59.715C145.039,59.715 143.273,59.763 141.536,59.859C138.963,60.001 136.993,62.202 137.135,64.774C137.277,67.347 139.475,69.328 142.05,69.175C143.617,69.088 145.209,69.045 146.784,69.045C193.601,69.045 231.691,107.134 231.691,153.952L231.691,174.394C231.691,176.971 233.779,179.059 236.356,179.059C238.932,179.059 241.021,176.971 241.021,174.394L241.021,153.952C241.022,101.99 198.747,59.715 146.784,59.715ZM95.775,85.027C96.694,85.027 97.623,84.756 98.434,84.192C106.196,78.794 114.72,74.765 123.772,72.213C126.252,71.514 127.695,68.936 126.996,66.456C126.297,63.977 123.719,62.535 121.24,63.232C111.188,66.066 101.723,70.54 93.108,76.53C90.992,78.001 90.47,80.909 91.941,83.024C92.847,84.329 94.299,85.027 95.775,85.027ZM61.877,172.409L61.877,153.952C61.877,132.25 70.096,111.581 85.02,95.752C86.787,93.877 86.7,90.925 84.826,89.157C82.951,87.39 79.998,87.477 78.231,89.352C61.668,106.918 52.547,129.861 52.547,153.952L52.547,172.409C52.547,174.949 51.611,177.387 49.913,179.273L44.16,185.665C42.437,187.58 42.592,190.53 44.508,192.253C45.399,193.056 46.515,193.451 47.627,193.451C48.903,193.451 50.175,192.931 51.096,191.908L56.849,185.516C60.091,181.912 61.877,177.257 61.877,172.409ZM255.002,117.628C249.885,102.422 241.753,88.685 230.832,76.797C229.089,74.9 226.138,74.774 224.241,76.518C222.343,78.261 222.218,81.212 223.961,83.11C233.993,94.029 241.462,106.644 246.159,120.604C246.815,122.552 248.632,123.782 250.58,123.782C251.073,123.782 251.575,123.703 252.068,123.537C254.51,122.715 255.824,120.07 255.002,117.628ZM183.653,45.92C181.216,45.085 178.562,46.385 177.728,48.823C176.894,51.261 178.194,53.913 180.632,54.747C190.919,58.267 200.577,63.366 209.339,69.905C210.177,70.53 211.155,70.831 212.125,70.831C213.547,70.831 214.952,70.184 215.868,68.956C217.41,66.891 216.984,63.968 214.92,62.427C205.379,55.308 194.86,49.754 183.653,45.92Z" style="fill:rgb(53,115,76);fill-rule:nonzero;"/>
                    <path d="M74.297,78.319C93.921,59.503 119.664,49.14 146.784,49.14C151.82,49.14 156.884,49.503 161.835,50.217C164.387,50.589 166.751,48.816 167.119,46.266C167.487,43.716 165.719,41.351 163.168,40.982C157.777,40.205 152.264,39.81 146.784,39.81C117.246,39.81 89.209,51.094 67.839,71.584C46.536,92.01 34.077,119.421 32.759,148.768C32.643,151.342 34.636,153.523 37.209,153.638C37.281,153.641 37.352,153.643 37.423,153.643C39.903,153.643 41.967,151.69 42.08,149.187C43.29,122.246 54.731,97.078 74.297,78.319Z" style="fill:rgb(53,115,76);fill-rule:nonzero;"/>
                    <path d="M146.784,19.905C136.352,19.905 125.956,21.114 115.885,23.499C113.378,24.092 111.827,26.607 112.421,29.114C113.015,31.62 115.529,33.172 118.036,32.578C127.402,30.361 137.074,29.235 146.784,29.235C180.993,29.235 212.926,42.865 236.699,67.612C237.615,68.565 238.838,69.045 240.064,69.045C241.226,69.045 242.391,68.614 243.295,67.745C245.153,65.959 245.213,63.006 243.428,61.149C231.041,48.255 216.491,38.111 200.183,31.002C183.291,23.638 165.325,19.905 146.784,19.905ZM41.991,78.005C42.845,78.673 43.858,78.997 44.865,78.997C46.25,78.997 47.621,78.383 48.541,77.208C61.837,60.226 79.341,46.905 99.16,38.685C101.54,37.698 102.669,34.968 101.682,32.588C100.695,30.208 97.964,29.077 95.586,30.066C74.287,38.899 55.478,53.212 41.195,71.455C39.606,73.485 39.963,76.417 41.991,78.005ZM82.097,24.088C82.778,24.088 83.469,23.939 84.122,23.623C103.765,14.139 124.847,9.33 146.784,9.33C158.216,9.33 169.602,10.675 180.623,13.328C183.127,13.929 185.647,12.388 186.25,9.883C186.853,7.379 185.311,4.859 182.805,4.256C171.07,1.432 158.95,0 146.784,0C123.431,0 100.983,5.121 80.066,15.22C77.746,16.341 76.773,19.13 77.893,21.45C78.697,23.117 80.363,24.088 82.097,24.088ZM200.122,19.521C204.932,21.436 209.692,23.638 214.271,26.065C214.967,26.434 215.714,26.609 216.451,26.609C218.123,26.609 219.74,25.708 220.577,24.127C221.783,21.851 220.916,19.027 218.639,17.821C213.764,15.237 208.695,12.893 203.574,10.853C201.18,9.9 198.467,11.068 197.513,13.461C196.56,15.854 197.728,18.568 200.122,19.521Z" style="fill:rgb(53,115,76);fill-rule:nonzero;"/>
                </g>
            </g>
        </g>
    </g>
    <g transform="matrix(1.14447,0,0,1.14447,-1.83895,7.23805)">
        <g>
            <g>
                <path d="M461.144,60.883L260.312,0.633C257.503,-0.211 254.504,-0.211 251.692,0.633L50.858,60.883C44.513,62.786 40.168,68.626 40.168,75.25L40.168,296.166C40.168,324.9 51.8,354.314 74.741,383.591C92.263,405.951 116.503,428.404 146.789,450.327C197.666,487.155 247.764,509.747 249.872,510.69C251.822,511.563 253.911,512 256.001,512C258.09,512 260.18,511.564 262.13,510.69C264.238,509.747 314.335,487.155 365.212,450.327C395.497,428.404 419.737,405.951 437.259,383.591C460.2,354.315 471.832,324.901 471.832,296.166L471.832,75.25C471.833,68.626 467.489,62.786 461.144,60.883ZM441.833,296.166C441.833,347.018 390.81,394.7 348.007,425.747C309.633,453.58 270.716,473.33 256.002,480.425C241.288,473.33 202.37,453.58 163.996,425.747C121.192,394.7 70.168,347.018 70.168,296.166L70.168,86.41L256.001,30.66L441.833,86.41L441.833,296.166Z" style="fill:rgb(76,158,106);fill-rule:nonzero;"/>
            </g>
        </g>
    </g>
</svg>
